<svg width="30" height="30" viewBox="0 0 64 64" xmlns="http://www.w3.org/2000/svg"><g data-name="Layer 26" id="Layer_26"><path d="M10,38a5,5,0,0,1-3-9,5,5,0,0,1,0-8,5,5,0,0,1,.07-8.05A5.987,5.987,0,0,1,7,12a6.984,6.984,0,0,1,5.73-6.88A6.018,6.018,0,0,1,18,2a5.931,5.931,0,0,1,4,1.54A5.931,5.931,0,0,1,26,2a6.018,6.018,0,0,1,5.27,3.12A6.984,6.984,0,0,1,37,12a5.987,5.987,0,0,1-.07.95A5,5,0,0,1,37,21a5,5,0,0,1,0,8,5,5,0,0,1-3,9Z" style="fill:#512a20"/><path d="M10,36a3,3,0,0,1-1.8-5.4L10.327,29,8.2,27.4a3,3,0,0,1,0-4.8L10.327,21,8.2,19.4A3.022,3.022,0,0,1,7,17a2.985,2.985,0,0,1,1.247-2.433l.992-.722-.2-1.212A4.117,4.117,0,0,1,9,12a4.98,4.98,0,0,1,4.086-4.912l.934-.169.46-.83A4.031,4.031,0,0,1,18,4a3.956,3.956,0,0,1,2.658,1.022L22,6.238l1.342-1.216A3.956,3.956,0,0,1,26,4a4.031,4.031,0,0,1,3.52,2.089l.46.83.934.169A4.98,4.98,0,0,1,35,12a4.117,4.117,0,0,1-.044.633l-.2,1.212.992.722A2.985,2.985,0,0,1,37,17a3.022,3.022,0,0,1-1.2,2.4L33.673,21,35.8,22.6a3,3,0,0,1,0,4.8L33.673,29,35.8,30.6A3,3,0,0,1,34,36Z" style="fill:#6d3830"/><path d="M18,26v6L6.682,36.244A7.215,7.215,0,0,0,2,43H2V57H42V43a7.215,7.215,0,0,0-4.682-6.756L26,32V26Z" style="fill:#296cd3"/><polygon points="30 33.5 26 32 26 27 18 27 18 32 14 33.5 14 43 30 43 30 33.5" style="fill:#e9baa4"/><path d="M30.857,16H31a3,3,0,0,1,3,3h0a3,3,0,0,1-3,3H13a3,3,0,0,1-3-3h0a3,3,0,0,1,3-3H30.857Z" style="fill:#c68f7c"/><path d="M18,29.933a8.031,8.031,0,0,0,8,0V26H18Z" style="fill:#c68f7c"/><path d="M13,15l1.01,7.07A8.07,8.07,0,0,0,22,29h0a8.07,8.07,0,0,0,7.99-6.93L31,15H29.385A7.954,7.954,0,0,1,22,10h0a7.954,7.954,0,0,1-7.385,5Z" style="fill:#e9baa4"/><rect height="4" style="fill:#c68f7c" width="14" x="15" y="39"/><polygon points="14 41 30 41 24 57 20 57 14 41" style="fill:#f1b850"/><polygon points="11.306 34.51 10 43 13 43 13 48 18 57 21 57 14.827 33.19 11.306 34.51" style="fill:#16417c"/><polygon points="36.038 35.764 29.173 33.19 23 57 26 57 31 48 36.038 35.764" style="fill:#16417c"/><rect height="12" style="fill:#215ab6" width="2" x="8" y="45"/><circle cx="46" cy="46" r="16" style="fill:#ba3535"/><path d="M46,30a15.911,15.911,0,0,0-9.7,3.3A15.98,15.98,0,0,0,58.7,55.7,15.98,15.98,0,0,0,46,30Z" style="fill:#d34f4f"/><rect height="16" style="fill:#d8dfed" width="12" x="37" y="38"/><polygon points="53 48 45 48 45 44 53 44 53 41 58 46 53 51 53 48" style="fill:#99aecd"/></g></svg>